<?xml version="1.0" encoding="UTF-8"?>
<svg id="Layer_1" xmlns="http://www.w3.org/2000/svg" version="1.1" viewBox="0 0 252 181.8">
  <!-- Generator: Adobe Illustrator 29.4.0, SVG Export Plug-In . SVG Version: 2.1.0 Build 152)  -->
  <defs>
    <style>
      .st0 {
        fill: #69a6ad;
      }

      .st1 {
        fill: #3b8e91;
      }

      .st2 {
        fill: #58989f;
      }
    </style>
  </defs>
  <path class="st0" d="M252,25.6c-19-8.5-38.4-10.2-58.6-5.1-37.2,9.3-59.5,41.1-91.1,59.9s-69.5,25.2-102.3-1.3c4.8,0,9.7,2.1,14.5,2.5C77.7,86.1,114.7,14.3,171,2.1c29.8-6.5,59.2,2.6,81,23.5Z"/>
  <path class="st2" d="M251,87.6c-19.4-10.2-43.9-10.7-64.3-2.8-36,13.9-65.1,57.4-104.3,60.7s-36.9-2.9-50.5-15.5c8,.1,15.2,2,23.5,1.5,57.9-3.8,86.5-76.6,149-71,17,1.5,33.7,10.5,44.5,23.5.9,1.1,2.4,1.6,2,3.5Z"/>
  <path class="st1" d="M228,139.6c-14.1-4.3-27.6-4.1-41.3,1.2-16.9,6.6-29.7,22.7-45.4,31.6-20.7,11.7-43.7,13.7-63.3-1.3,5.4.4,9.7,1.8,15.5,1.5,36-2,53.8-41.5,88.2-47.7,16.1-2.9,35.7,1.7,46.3,14.8Z"/>
</svg>